<svg width="11" height="12" viewBox="0 0 11 12" fill="none" xmlns="http://www.w3.org/2000/svg">
<path d="M0.248607 3.25329C0.248607 3.69298 0.409857 4.17626 0.614701 4.68907C0.819545 5.20188 1.08345 5.68517 1.28876 6.05126C1.84564 7.01829 2.56329 7.97032 3.38361 8.7611C4.20392 9.55188 5.17095 10.2114 6.2547 10.607C6.8847 10.8559 7.5147 11.1344 8.21782 11.1344C8.56939 11.1344 9.06767 11.0027 9.52142 10.8119C9.96111 10.6216 10.3563 10.3286 10.503 9.97704C10.5616 9.84532 10.6347 9.66954 10.6788 9.46423C10.7228 9.27392 10.7519 9.08313 10.7519 8.95142C10.7519 8.87829 10.7519 8.8047 10.7374 8.79017C10.6933 8.70204 10.5906 8.62892 10.4734 8.55579C10.2095 8.42407 10.1659 8.38001 9.77032 8.14563C9.36017 7.91126 8.93548 7.64735 8.56892 7.45704C8.39314 7.35438 8.27595 7.31032 8.23189 7.31032C7.99751 7.31032 7.70454 7.63282 7.45564 7.98438C7.19173 8.33595 6.89876 8.65845 6.69392 8.65845C6.59126 8.65845 6.48861 8.61438 6.37142 8.54126C6.25423 8.46813 6.13704 8.40954 6.06392 8.36548C4.77486 7.63282 3.91048 6.76892 3.17829 5.49438C3.09017 5.34767 2.88533 5.04017 2.88533 4.87892C2.88533 4.6886 3.14923 4.46876 3.41267 4.23438C3.66158 4.01454 3.92548 3.7511 3.92548 3.4286C3.92548 3.38454 3.89595 3.25282 3.83736 3.06251C3.70564 2.68142 3.52986 2.2422 3.38314 1.81751C3.31001 1.6122 3.25142 1.46595 3.23642 1.39282C3.20689 1.34876 3.19236 1.29017 3.17783 1.21704C3.16329 1.14392 3.13376 1.08532 3.11923 1.02673C3.07517 0.89501 3.00204 0.792353 2.92892 0.73376C2.85579 0.704228 2.68001 0.660635 2.50423 0.645635C2.32845 0.645635 2.12314 0.631104 2.03548 0.631104C1.99142 0.631104 1.93283 0.631103 1.87423 0.645635H1.68392C1.21517 0.850947 0.878138 1.2611 0.629232 1.74438C0.394857 2.22767 0.248138 2.77001 0.248138 3.25329H0.248607Z" fill="black"/>
</svg>
