<svg width="15" height="15" viewBox="0 0 15 15" fill="none" xmlns="http://www.w3.org/2000/svg">
<path fill-rule="evenodd" clip-rule="evenodd" d="M7.5 0C11.6423 0 15 3.44245 15 7.6897C15 11.0864 12.8535 13.968 9.87525 14.9857C9.495 15.0615 9.36 14.8213 9.36 14.6166C9.36 14.3631 9.369 13.5351 9.369 12.5061C9.369 11.7891 9.129 11.3211 8.85975 11.0826C10.53 10.8921 12.285 10.2418 12.285 7.28833C12.285 6.44833 11.994 5.76287 11.5125 5.22437C11.5905 5.03012 11.8477 4.24796 11.439 3.18896C11.439 3.18896 10.8105 2.98292 9.37875 3.97742C8.7795 3.80717 8.1375 3.72151 7.5 3.71851C6.8625 3.72151 6.22125 3.80717 5.62275 3.97742C4.1895 2.98292 3.5595 3.18896 3.5595 3.18896C3.15225 4.24796 3.4095 5.03012 3.48675 5.22437C3.0075 5.76287 2.71425 6.44833 2.71425 7.28833C2.71425 10.2343 4.4655 10.8946 6.13125 11.0889C5.91675 11.2809 5.7225 11.6196 5.655 12.1168C5.2275 12.3133 4.1415 12.6534 3.4725 11.4781C3.4725 11.4781 3.07575 10.7393 2.32275 10.6853C2.32275 10.6853 1.5915 10.6756 2.27175 11.1526C2.27175 11.1526 2.763 11.3888 3.10425 12.2776C3.10425 12.2776 3.5445 13.6501 5.631 13.1851C5.63475 13.8278 5.6415 14.4336 5.6415 14.6166C5.6415 14.8198 5.5035 15.0577 5.12925 14.9865C2.14875 13.9702 0 11.0872 0 7.6897C0 3.44245 3.3585 0 7.5 0Z" fill="black"/>
</svg>
