<svg width="15" height="12" viewBox="0 0 15 12" fill="none" xmlns="http://www.w3.org/2000/svg">
<path d="M4.9929 5.89563L0.03182 11.469C0.0191096 11.4129 0 11.3586 0 11.2972V1.46831C0 1.39371 0.0208415 1.32631 0.0398044 1.25859L4.9929 5.89563ZM14.4859 0.791218C14.4496 0.783087 14.4148 0.765503 14.3747 0.765503H0.625804C0.587731 0.765503 0.553709 0.783087 0.515167 0.791218L7.50034 7.32971L14.4859 0.791218ZM7.69986 8.05664C7.6425 8.11151 7.57152 8.13816 7.50034 8.13816C7.42933 8.13816 7.3582 8.11151 7.30146 8.05664L5.47533 6.34765L0.474248 11.9646C0.524091 11.9799 0.572995 12 0.625804 12H14.3747C14.4302 12 14.4784 11.9799 14.5286 11.9646L9.52787 6.34765L7.69986 8.05664ZM10.0096 5.89563L14.9699 11.4684C14.9834 11.4123 15 11.358 15 11.2972V1.46831C15 1.39495 14.9818 1.32631 14.963 1.25891L10.0096 5.89563Z" fill="black"/>
</svg>
